<svg width="275" height="115" viewBox="0 0 275 115" fill="none" xmlns="http://www.w3.org/2000/svg">
<path d="M28.6958 69.696H29.4638V27.2H34.8398V72H24.0878L11.1598 29.504H10.3918V72H5.01575V27.2H15.7678L28.6958 69.696ZM48.7473 57.664C48.8753 60.8213 49.8566 63.36 51.6913 65.28C53.5259 67.2 56.0859 68.16 59.3713 68.16C60.8646 68.16 62.1659 67.9893 63.2753 67.648C64.3846 67.3067 65.3233 66.8373 66.0913 66.24C66.9019 65.6427 67.5419 64.96 68.0113 64.192C68.5233 63.3813 68.9286 62.528 69.2273 61.632L73.9633 62.912C73.0673 65.856 71.4033 68.2667 68.9713 70.144C66.5819 71.9787 63.3393 72.896 59.2433 72.896C56.9819 72.896 54.8913 72.512 52.9713 71.744C51.0939 70.9333 49.4726 69.8027 48.1073 68.352C46.7419 66.9013 45.6753 65.1733 44.9073 63.168C44.1393 61.1627 43.7552 58.944 43.7552 56.512V54.976C43.7552 52.7573 44.1393 50.688 44.9073 48.768C45.7179 46.848 46.8273 45.2053 48.2353 43.84C49.6433 42.432 51.2859 41.344 53.1633 40.576C55.0833 39.7653 57.1526 39.36 59.3713 39.36C61.9739 39.36 64.2139 39.8507 66.0913 40.832C68.0113 41.7707 69.5686 42.944 70.7633 44.352C72.0006 45.76 72.8966 47.296 73.4513 48.96C74.0486 50.624 74.3473 52.16 74.3473 53.568V57.664H48.7473ZM59.3713 44.096C57.9633 44.096 56.6406 44.3307 55.4033 44.8C54.2086 45.2267 53.1419 45.8453 52.2033 46.656C51.3073 47.4667 50.5606 48.4267 49.9633 49.536C49.4086 50.6027 49.0459 51.776 48.8753 53.056H69.3553C69.2699 51.6907 68.9286 50.4533 68.3313 49.344C67.7766 48.2347 67.0299 47.296 66.0913 46.528C65.1953 45.76 64.1499 45.1627 62.9553 44.736C61.8033 44.3093 60.6086 44.096 59.3713 44.096ZM114.239 56.512C114.239 59.1573 113.791 61.504 112.895 63.552C112.041 65.5573 110.889 67.264 109.439 68.672C107.988 70.0373 106.281 71.0827 104.319 71.808C102.399 72.5333 100.393 72.896 98.3028 72.896C96.1694 72.896 94.1428 72.5333 92.2228 71.808C90.3028 71.0827 88.6174 70.0373 87.1667 68.672C85.7161 67.264 84.5428 65.5573 83.6468 63.552C82.7934 61.504 82.3668 59.1573 82.3668 56.512V55.744C82.3668 53.1413 82.7934 50.8373 83.6468 48.832C84.5428 46.784 85.7161 45.056 87.1667 43.648C88.6601 42.24 90.3668 41.1733 92.2868 40.448C94.2068 39.7227 96.2121 39.36 98.3028 39.36C100.393 39.36 102.399 39.7227 104.319 40.448C106.239 41.1733 107.924 42.24 109.375 43.648C110.868 45.056 112.041 46.784 112.895 48.832C113.791 50.8373 114.239 53.1413 114.239 55.744V56.512ZM98.3028 68.16C99.8388 68.16 101.247 67.904 102.527 67.392C103.849 66.8373 105.001 66.048 105.983 65.024C106.964 64 107.732 62.784 108.287 61.376C108.841 59.9253 109.119 58.304 109.119 56.512V55.744C109.119 54.0373 108.841 52.48 108.287 51.072C107.732 49.6213 106.964 48.384 105.983 47.36C105.001 46.336 103.849 45.5467 102.527 44.992C101.204 44.3947 99.7961 44.096 98.3028 44.096C96.8094 44.096 95.4014 44.3947 94.0788 44.992C92.7561 45.5467 91.6041 46.336 90.6228 47.36C89.6414 48.384 88.8734 49.6213 88.3188 51.072C87.7641 52.48 87.4868 54.0373 87.4868 55.744V56.512C87.4868 58.304 87.7641 59.9253 88.3188 61.376C88.8734 62.784 89.6414 64 90.6228 65.024C91.6041 66.048 92.7348 66.8373 94.0148 67.392C95.3374 67.904 96.7668 68.16 98.3028 68.16ZM147.602 67.136H146.834C145.81 69.056 144.402 70.5067 142.61 71.488C140.861 72.4267 138.941 72.896 136.85 72.896C134.717 72.896 132.712 72.5333 130.834 71.808C128.957 71.0827 127.293 70.0373 125.842 68.672C124.434 67.3067 123.304 65.6213 122.45 63.616C121.64 61.568 121.234 59.2427 121.234 56.64V55.616C121.234 53.056 121.661 50.7733 122.514 48.768C123.368 46.72 124.498 45.0133 125.906 43.648C127.314 42.24 128.957 41.1733 130.834 40.448C132.712 39.7227 134.674 39.36 136.722 39.36C139.026 39.36 141.032 39.872 142.738 40.896C144.488 41.8773 145.853 43.328 146.834 45.248H147.602V40.256H152.594V79.808C152.594 81.2587 152.125 82.4533 151.186 83.392C150.29 84.3307 149.117 84.8 147.666 84.8H126.994V80.192H145.874C147.026 80.192 147.602 79.552 147.602 78.272V67.136ZM136.978 68.16C138.472 68.16 139.858 67.8827 141.138 67.328C142.418 66.7733 143.528 65.984 144.466 64.96C145.448 63.936 146.216 62.72 146.77 61.312C147.325 59.8613 147.602 58.2613 147.602 56.512V55.744C147.602 54.0373 147.325 52.48 146.77 51.072C146.216 49.6213 145.448 48.384 144.466 47.36C143.528 46.336 142.397 45.5467 141.074 44.992C139.794 44.3947 138.429 44.096 136.978 44.096C135.485 44.096 134.077 44.3733 132.754 44.928C131.474 45.4827 130.344 46.272 129.362 47.296C128.424 48.32 127.677 49.536 127.122 50.944C126.61 52.352 126.354 53.9093 126.354 55.616V56.64C126.354 58.432 126.61 60.032 127.122 61.44C127.677 62.848 128.424 64.064 129.362 65.088C130.344 66.0693 131.474 66.8373 132.754 67.392C134.034 67.904 135.442 68.16 136.978 68.16ZM160.87 40.256H172.39V44.48H173.158C173.968 42.7307 175.12 41.4507 176.614 40.64C178.107 39.7867 179.814 39.36 181.734 39.36C184.934 39.36 187.515 40.4053 189.478 42.496C191.44 44.5867 192.486 47.6373 192.614 51.648L187.366 52.416C187.366 49.472 186.662 47.36 185.254 46.08C183.846 44.7573 182.118 44.096 180.07 44.096C178.747 44.096 177.595 44.352 176.614 44.864C175.675 45.376 174.886 46.08 174.246 46.976C173.606 47.872 173.136 48.9173 172.838 50.112C172.539 51.3067 172.39 52.5867 172.39 53.952V67.392H180.454V72H160.102V67.392H167.398V44.864H160.87V40.256ZM231.801 56.512C231.801 59.1573 231.353 61.504 230.457 63.552C229.604 65.5573 228.452 67.264 227.001 68.672C225.551 70.0373 223.844 71.0827 221.881 71.808C219.961 72.5333 217.956 72.896 215.865 72.896C213.732 72.896 211.705 72.5333 209.785 71.808C207.865 71.0827 206.18 70.0373 204.729 68.672C203.279 67.264 202.105 65.5573 201.209 63.552C200.356 61.504 199.929 59.1573 199.929 56.512V55.744C199.929 53.1413 200.356 50.8373 201.209 48.832C202.105 46.784 203.279 45.056 204.729 43.648C206.223 42.24 207.929 41.1733 209.849 40.448C211.769 39.7227 213.775 39.36 215.865 39.36C217.956 39.36 219.961 39.7227 221.881 40.448C223.801 41.1733 225.487 42.24 226.937 43.648C228.431 45.056 229.604 46.784 230.457 48.832C231.353 50.8373 231.801 53.1413 231.801 55.744V56.512ZM215.865 68.16C217.401 68.16 218.809 67.904 220.089 67.392C221.412 66.8373 222.564 66.048 223.545 65.024C224.527 64 225.295 62.784 225.849 61.376C226.404 59.9253 226.681 58.304 226.681 56.512V55.744C226.681 54.0373 226.404 52.48 225.849 51.072C225.295 49.6213 224.527 48.384 223.545 47.36C222.564 46.336 221.412 45.5467 220.089 44.992C218.767 44.3947 217.359 44.096 215.865 44.096C214.372 44.096 212.964 44.3947 211.641 44.992C210.319 45.5467 209.167 46.336 208.185 47.36C207.204 48.384 206.436 49.6213 205.881 51.072C205.327 52.48 205.049 54.0373 205.049 55.744V56.512C205.049 58.304 205.327 59.9253 205.881 61.376C206.436 62.784 207.204 64 208.185 65.024C209.167 66.048 210.297 66.8373 211.577 67.392C212.9 67.904 214.329 68.16 215.865 68.16ZM249.229 53.44H250.317L262.413 40.256H268.557V40.64L255.373 55.168V56.32L270.093 71.616V72H263.949L250.445 58.048H249.229V72H244.237V27.2H249.229V53.44Z" fill="#514745"/>
<path d="M38.7759 108V97.504H40.4559L42.4399 103.12C42.5679 103.472 42.6853 103.824 42.7919 104.176C42.9093 104.528 43.0266 104.901 43.1439 105.296H43.2079C43.3253 104.901 43.4373 104.528 43.5439 104.176C43.6506 103.824 43.7626 103.472 43.8799 103.12L45.8639 97.504H47.5279V108H46.2799V102.224C46.2799 101.915 46.2906 101.568 46.3119 101.184C46.3333 100.8 46.3546 100.421 46.3759 100.048C46.4079 99.664 46.4399 99.3173 46.4719 99.008H46.4079L45.5919 101.536L43.6239 106.96H42.6479L40.6799 101.536L39.8639 99.008H39.7999C39.8319 99.3173 39.8586 99.664 39.8799 100.048C39.9119 100.421 39.9386 100.8 39.9599 101.184C39.9813 101.568 39.9919 101.915 39.9919 102.224V108H38.7759ZM49.0089 108L52.5609 97.504H54.0649L57.6169 108H56.2089L54.3689 102.128C54.1769 101.541 53.9956 100.96 53.8249 100.384C53.6543 99.7973 53.4836 99.2 53.3129 98.592H53.2489C53.0889 99.2 52.9236 99.7973 52.7529 100.384C52.5823 100.96 52.4009 101.541 52.2089 102.128L50.3529 108H49.0089ZM50.8649 104.8V103.744H55.7129V104.8H50.8649ZM59.0884 108V97.504H60.4164V102.768H60.4644L64.8324 97.504H66.3364L63.0564 101.504L66.8484 108H65.3604L62.2244 102.544L60.4164 104.672V108H59.0884ZM68.3541 108V97.504H74.4021V98.624H69.6821V101.92H73.6661V103.056H69.6821V106.864H74.5621V108H68.3541ZM81.0987 108L78.9227 97.504H80.3467L81.4187 103.216C81.5254 103.781 81.6267 104.347 81.7227 104.912C81.8187 105.477 81.9094 106.059 81.9947 106.656H82.0587C82.1654 106.059 82.2774 105.477 82.3947 104.912C82.5227 104.347 82.6507 103.781 82.7787 103.216L84.2027 97.504H85.5467L86.9227 103.216C87.0507 103.771 87.1787 104.336 87.3067 104.912C87.4347 105.477 87.5574 106.059 87.6747 106.656H87.7387C87.824 106.059 87.9147 105.477 88.0107 104.912C88.1067 104.347 88.2027 103.781 88.2987 103.216L89.4027 97.504H90.7627L88.5707 108H86.8587L85.3547 101.696C85.2694 101.301 85.184 100.907 85.0987 100.512C85.024 100.107 84.9494 99.68 84.8747 99.232H84.8107C84.7467 99.68 84.672 100.107 84.5867 100.512C84.512 100.907 84.432 101.301 84.3467 101.696L82.8107 108H81.0987ZM92.5728 108V97.504H98.6208V98.624H93.9008V101.92H97.8848V103.056H93.9008V106.864H98.7808V108H92.5728ZM101.01 108V97.504H104.13C104.834 97.504 105.458 97.5893 106.002 97.76C106.546 97.9307 106.968 98.208 107.266 98.592C107.576 98.9653 107.73 99.456 107.73 100.064C107.73 100.608 107.597 101.088 107.33 101.504C107.074 101.909 106.696 102.192 106.194 102.352V102.416C106.856 102.533 107.378 102.8 107.762 103.216C108.146 103.621 108.338 104.176 108.338 104.88C108.338 105.584 108.168 106.165 107.826 106.624C107.496 107.083 107.032 107.429 106.434 107.664C105.837 107.888 105.144 108 104.354 108H101.01ZM102.338 101.968H103.89C104.786 101.968 105.432 101.813 105.826 101.504C106.221 101.195 106.418 100.773 106.418 100.24C106.418 99.6213 106.21 99.1893 105.794 98.944C105.378 98.688 104.765 98.56 103.954 98.56H102.338V101.968ZM102.338 106.944H104.162C105.069 106.944 105.773 106.779 106.274 106.448C106.776 106.107 107.026 105.584 107.026 104.88C107.026 104.229 106.781 103.755 106.29 103.456C105.8 103.147 105.09 102.992 104.162 102.992H102.338V106.944ZM113.62 108V97.504H115.3L117.284 103.12C117.412 103.472 117.529 103.824 117.636 104.176C117.753 104.528 117.87 104.901 117.988 105.296H118.052C118.169 104.901 118.281 104.528 118.388 104.176C118.494 103.824 118.606 103.472 118.724 103.12L120.708 97.504H122.372V108H121.124V102.224C121.124 101.915 121.134 101.568 121.156 101.184C121.177 100.8 121.198 100.421 121.22 100.048C121.252 99.664 121.284 99.3173 121.316 99.008H121.252L120.436 101.536L118.468 106.96H117.492L115.524 101.536L114.708 99.008H114.644C114.676 99.3173 114.702 99.664 114.724 100.048C114.756 100.421 114.782 100.8 114.804 101.184C114.825 101.568 114.836 101.915 114.836 102.224V108H113.62ZM129.117 108.192C128.242 108.192 127.463 107.968 126.781 107.52C126.109 107.072 125.581 106.437 125.197 105.616C124.823 104.795 124.637 103.824 124.637 102.704C124.637 101.584 124.823 100.624 125.197 99.824C125.581 99.0133 126.109 98.3947 126.781 97.968C127.463 97.5307 128.242 97.312 129.117 97.312C130.002 97.312 130.781 97.5307 131.453 97.968C132.125 98.3947 132.653 99.0133 133.037 99.824C133.421 100.624 133.613 101.584 133.613 102.704C133.613 103.824 133.421 104.795 133.037 105.616C132.653 106.437 132.125 107.072 131.453 107.52C130.781 107.968 130.002 108.192 129.117 108.192ZM129.117 107.008C129.746 107.008 130.29 106.832 130.749 106.48C131.218 106.128 131.581 105.632 131.837 104.992C132.093 104.341 132.221 103.579 132.221 102.704C132.221 101.84 132.093 101.093 131.837 100.464C131.581 99.8347 131.218 99.3493 130.749 99.008C130.29 98.656 129.746 98.48 129.117 98.48C128.498 98.48 127.954 98.656 127.485 99.008C127.015 99.3493 126.653 99.8347 126.397 100.464C126.141 101.093 126.013 101.84 126.013 102.704C126.013 103.579 126.141 104.341 126.397 104.992C126.653 105.632 127.015 106.128 127.485 106.48C127.954 106.832 128.498 107.008 129.117 107.008ZM135.87 108V97.504H139.15C139.864 97.504 140.499 97.6 141.054 97.792C141.608 97.9733 142.04 98.2827 142.35 98.72C142.67 99.1467 142.83 99.7227 142.83 100.448C142.83 101.152 142.67 101.733 142.35 102.192C142.04 102.651 141.608 102.997 141.054 103.232C140.499 103.456 139.864 103.568 139.15 103.568H137.198V108H135.87ZM137.198 102.48H138.958C139.779 102.48 140.408 102.315 140.846 101.984C141.283 101.643 141.502 101.131 141.502 100.448C141.502 99.7653 141.283 99.2853 140.846 99.008C140.408 98.72 139.779 98.576 138.958 98.576H137.198V102.48ZM141.63 108L138.894 103.2L139.934 102.496L143.134 108H141.63ZM144.979 108V97.504H151.027V98.624H146.307V101.92H150.291V103.056H146.307V106.864H151.187V108H144.979ZM155.228 108L158.78 97.504H160.284L163.836 108H162.428L160.588 102.128C160.396 101.541 160.214 100.96 160.044 100.384C159.873 99.7973 159.702 99.2 159.532 98.592H159.468C159.308 99.2 159.142 99.7973 158.972 100.384C158.801 100.96 158.62 101.541 158.428 102.128L156.572 108H155.228ZM157.084 104.8V103.744H161.932V104.8H157.084ZM169.135 108.192C168.26 108.192 167.471 107.979 166.767 107.552C166.074 107.115 165.53 106.491 165.135 105.68C164.74 104.869 164.543 103.893 164.543 102.752C164.543 101.909 164.655 101.152 164.879 100.48C165.114 99.808 165.444 99.2373 165.871 98.768C166.298 98.288 166.788 97.9253 167.343 97.68C167.908 97.4347 168.527 97.312 169.199 97.312C169.828 97.312 170.388 97.44 170.879 97.696C171.38 97.952 171.78 98.256 172.079 98.608L171.359 99.424C171.082 99.1253 170.762 98.896 170.399 98.736C170.047 98.5653 169.652 98.48 169.215 98.48C168.564 98.48 167.988 98.656 167.487 99.008C166.996 99.3493 166.612 99.84 166.335 100.48C166.058 101.109 165.919 101.856 165.919 102.72C165.919 103.605 166.052 104.368 166.319 105.008C166.586 105.648 166.97 106.144 167.471 106.496C167.972 106.837 168.559 107.008 169.231 107.008C169.722 107.008 170.159 106.917 170.543 106.736C170.938 106.544 171.295 106.267 171.615 105.904L172.319 106.688C171.903 107.168 171.439 107.541 170.927 107.808C170.415 108.064 169.818 108.192 169.135 108.192ZM177.807 108.192C176.932 108.192 176.143 107.979 175.439 107.552C174.745 107.115 174.201 106.491 173.807 105.68C173.412 104.869 173.215 103.893 173.215 102.752C173.215 101.909 173.327 101.152 173.551 100.48C173.785 99.808 174.116 99.2373 174.543 98.768C174.969 98.288 175.46 97.9253 176.015 97.68C176.58 97.4347 177.199 97.312 177.871 97.312C178.5 97.312 179.06 97.44 179.551 97.696C180.052 97.952 180.452 98.256 180.751 98.608L180.031 99.424C179.753 99.1253 179.433 98.896 179.071 98.736C178.719 98.5653 178.324 98.48 177.887 98.48C177.236 98.48 176.66 98.656 176.159 99.008C175.668 99.3493 175.284 99.84 175.007 100.48C174.729 101.109 174.591 101.856 174.591 102.72C174.591 103.605 174.724 104.368 174.991 105.008C175.257 105.648 175.641 106.144 176.143 106.496C176.644 106.837 177.231 107.008 177.903 107.008C178.393 107.008 178.831 106.917 179.215 106.736C179.609 106.544 179.967 106.267 180.287 105.904L180.991 106.688C180.575 107.168 180.111 107.541 179.599 107.808C179.087 108.064 178.489 108.192 177.807 108.192ZM182.963 108V97.504H189.011V98.624H184.291V101.92H188.275V103.056H184.291V106.864H189.171V108H182.963ZM194.313 108.192C193.566 108.192 192.884 108.053 192.265 107.776C191.646 107.488 191.102 107.104 190.633 106.624L191.385 105.76C191.758 106.155 192.201 106.464 192.713 106.688C193.236 106.912 193.774 107.024 194.329 107.024C195.022 107.024 195.561 106.869 195.945 106.56C196.329 106.24 196.521 105.824 196.521 105.312C196.521 104.949 196.441 104.661 196.281 104.448C196.132 104.235 195.924 104.053 195.657 103.904C195.401 103.755 195.108 103.605 194.777 103.456L193.273 102.8C192.932 102.651 192.596 102.464 192.265 102.24C191.945 102.016 191.678 101.733 191.465 101.392C191.252 101.04 191.145 100.608 191.145 100.096C191.145 99.5627 191.284 99.088 191.561 98.672C191.849 98.2453 192.238 97.9147 192.729 97.68C193.23 97.4347 193.801 97.312 194.441 97.312C195.081 97.312 195.668 97.4293 196.201 97.664C196.734 97.8987 197.182 98.2027 197.545 98.576L196.825 99.44C196.494 99.152 196.132 98.9227 195.737 98.752C195.342 98.5707 194.91 98.48 194.441 98.48C193.854 98.48 193.38 98.6187 193.017 98.896C192.665 99.1733 192.489 99.5467 192.489 100.016C192.489 100.347 192.574 100.619 192.745 100.832C192.916 101.045 193.134 101.221 193.401 101.36C193.678 101.499 193.956 101.632 194.233 101.76L195.721 102.4C196.137 102.581 196.505 102.789 196.825 103.024C197.156 103.259 197.412 103.552 197.593 103.904C197.785 104.256 197.881 104.688 197.881 105.2C197.881 105.755 197.737 106.261 197.449 106.72C197.172 107.168 196.761 107.525 196.217 107.792C195.684 108.059 195.049 108.192 194.313 108.192ZM202.641 108.192C201.894 108.192 201.212 108.053 200.593 107.776C199.974 107.488 199.43 107.104 198.961 106.624L199.713 105.76C200.086 106.155 200.529 106.464 201.041 106.688C201.564 106.912 202.102 107.024 202.657 107.024C203.35 107.024 203.889 106.869 204.273 106.56C204.657 106.24 204.849 105.824 204.849 105.312C204.849 104.949 204.769 104.661 204.609 104.448C204.46 104.235 204.252 104.053 203.985 103.904C203.729 103.755 203.436 103.605 203.105 103.456L201.601 102.8C201.26 102.651 200.924 102.464 200.593 102.24C200.273 102.016 200.006 101.733 199.793 101.392C199.58 101.04 199.473 100.608 199.473 100.096C199.473 99.5627 199.612 99.088 199.889 98.672C200.177 98.2453 200.566 97.9147 201.057 97.68C201.558 97.4347 202.129 97.312 202.769 97.312C203.409 97.312 203.996 97.4293 204.529 97.664C205.062 97.8987 205.51 98.2027 205.873 98.576L205.153 99.44C204.822 99.152 204.46 98.9227 204.065 98.752C203.67 98.5707 203.238 98.48 202.769 98.48C202.182 98.48 201.708 98.6187 201.345 98.896C200.993 99.1733 200.817 99.5467 200.817 100.016C200.817 100.347 200.902 100.619 201.073 100.832C201.244 101.045 201.462 101.221 201.729 101.36C202.006 101.499 202.284 101.632 202.561 101.76L204.049 102.4C204.465 102.581 204.833 102.789 205.153 103.024C205.484 103.259 205.74 103.552 205.921 103.904C206.113 104.256 206.209 104.688 206.209 105.2C206.209 105.755 206.065 106.261 205.777 106.72C205.5 107.168 205.089 107.525 204.545 107.792C204.012 108.059 203.377 108.192 202.641 108.192ZM208.276 108V97.504H209.604V108H208.276ZM212.479 108V97.504H215.599C216.303 97.504 216.927 97.5893 217.471 97.76C218.015 97.9307 218.436 98.208 218.735 98.592C219.044 98.9653 219.199 99.456 219.199 100.064C219.199 100.608 219.066 101.088 218.799 101.504C218.543 101.909 218.164 102.192 217.663 102.352V102.416C218.324 102.533 218.847 102.8 219.231 103.216C219.615 103.621 219.807 104.176 219.807 104.88C219.807 105.584 219.636 106.165 219.295 106.624C218.964 107.083 218.5 107.429 217.903 107.664C217.306 107.888 216.612 108 215.823 108H212.479ZM213.807 101.968H215.359C216.255 101.968 216.9 101.813 217.295 101.504C217.69 101.195 217.887 100.773 217.887 100.24C217.887 99.6213 217.679 99.1893 217.263 98.944C216.847 98.688 216.234 98.56 215.423 98.56H213.807V101.968ZM213.807 106.944H215.631C216.538 106.944 217.242 106.779 217.743 106.448C218.244 106.107 218.495 105.584 218.495 104.88C218.495 104.229 218.25 103.755 217.759 103.456C217.268 103.147 216.559 102.992 215.631 102.992H213.807V106.944ZM221.885 108V97.504H223.213V106.864H227.805V108H221.885ZM229.667 108V97.504H235.715V98.624H230.995V101.92H234.979V103.056H230.995V106.864H235.875V108H229.667Z" fill="#519FA4"/>
</svg>
